HIERARCHY
ROOT Hips
{
	OFFSET 0.00000 0.00000 0.00000
	CHANNELS 6 Xposition Yposition Zposition Zrotation Yrotation Xrotation 
	JOINT LHipJoint
	{
		OFFSET 0 0 0
		CHANNELS 3 Zrotation Yrotation Xrotation
		JOINT LeftUpLeg
		{
			OFFSET 1.73240 -1.89999 0.57994
			CHANNELS 3 Zrotation Yrotation Xrotation
			JOINT LeftLeg
			{
				OFFSET 2.43106 -6.67930 0.00000
				CHANNELS 3 Zrotation Yrotation Xrotation
				JOINT LeftFoot
				{
					OFFSET 2.78854 -7.66147 0.00000
					CHANNELS 3 Zrotation Yrotation Xrotation
					JOINT LeftToeBase
					{
						OFFSET 0.17314 -0.47571 2.01064
						CHANNELS 3 Zrotation Yrotation Xrotation
						End Site
						{
							OFFSET 0.00000 -0.00000 1.04147
						}
					}
				}
			}
		}
	}
	JOINT RHipJoint
	{
		OFFSET 0 0 0
		CHANNELS 3 Zrotation Yrotation Xrotation
		JOINT RightUpLeg
		{
			OFFSET -1.57078 -1.89998 0.57994
			CHANNELS 3 Zrotation Yrotation Xrotation
			JOINT RightLeg
			{
				OFFSET -2.50166 -6.87326 0.00000
				CHANNELS 3 Zrotation Yrotation Xrotation
				JOINT RightFoot
				{
					OFFSET -2.77304 -7.61886 0.00000
					CHANNELS 3 Zrotation Yrotation Xrotation
					JOINT RightToeBase
					{
						OFFSET -0.23513 -0.64602 2.11039
						CHANNELS 3 Zrotation Yrotation Xrotation
						End Site
						{
							OFFSET -0.00000 -0.00000 1.10597
						}
					}
				}
			}
		}
	}
	JOINT LowerBack
	{
		OFFSET 0 0 0
		CHANNELS 3 Zrotation Yrotation Xrotation
		JOINT Spine
		{
			OFFSET -0.00908 2.00015 -0.35323
			CHANNELS 3 Zrotation Yrotation Xrotation
			JOINT Spine1
			{
				OFFSET 0.05647 2.02258 0.04270
				CHANNELS 3 Zrotation Yrotation Xrotation
				JOINT Neck
				{
					OFFSET 0 0 0
					CHANNELS 3 Zrotation Yrotation Xrotation
					JOINT Neck1
					{
						OFFSET -0.02074 1.73711 0.13117
						CHANNELS 3 Zrotation Yrotation Xrotation
						JOINT Head
						{
							OFFSET -0.02359 1.73615 -0.24320
							CHANNELS 3 Zrotation Yrotation Xrotation
							End Site
							{
								OFFSET -0.00579 1.75982 -0.09688
							}
						}
					}
				}
				JOINT LeftShoulder
				{
					OFFSET 0 0 0
					CHANNELS 3 Zrotation Yrotation Xrotation
					JOINT LeftArm
					{
						OFFSET 3.20537 1.11432 -0.27680
						CHANNELS 3 Zrotation Yrotation Xrotation
						JOINT LeftForeArm
						{
							OFFSET 5.05923 -0.00000 -0.00000
							CHANNELS 3 Zrotation Yrotation Xrotation
							JOINT LeftHand
							{
								OFFSET 3.51996 -0.00000 0.00000
								CHANNELS 3 Zrotation Yrotation Xrotation
								JOINT LeftFingerBase
								{
									OFFSET 0 0 0
									CHANNELS 3 Zrotation Yrotation Xrotation
									JOINT LeftHandIndex1
									{
										OFFSET 0.65238 -0.00000 0.00000
										CHANNELS 3 Zrotation Yrotation Xrotation
										End Site
										{
											OFFSET 0.52596 -0.00000 0.00000
										}
									}
								}
								JOINT LThumb
								{
									OFFSET 0 0 0
									CHANNELS 3 Zrotation Yrotation Xrotation
									End Site
									{
										OFFSET 0.53399 -0.00000 0.53399
									}
								}
							}
						}
					}
				}
				JOINT RightShoulder
				{
					OFFSET 0 0 0
					CHANNELS 3 Zrotation Yrotation Xrotation
					JOINT RightArm
					{
						OFFSET -2.96983 1.42602 -0.37449
						CHANNELS 3 Zrotation Yrotation Xrotation
						JOINT RightForeArm
						{
							OFFSET -5.40867 -0.00000 0.00000
							CHANNELS 3 Zrotation Yrotation Xrotation
							JOINT RightHand
							{
								OFFSET -3.12964 -0.00000 0.00000
								CHANNELS 3 Zrotation Yrotation Xrotation
								JOINT RightFingerBase
								{
									OFFSET 0 0 0
									CHANNELS 3 Zrotation Yrotation Xrotation
									JOINT RightHandIndex1
									{
										OFFSET -0.83271 -0.00000 0.00000
										CHANNELS 3 Zrotation Yrotation Xrotation
										End Site
										{
											OFFSET -0.67135 -0.00000 0.00000
										}
									}
								}
								JOINT RThumb
								{
									OFFSET 0 0 0
									CHANNELS 3 Zrotation Yrotation Xrotation
									End Site
									{
										OFFSET -0.68160 -0.00000 0.68160
									}
								}
							}
						}
					}
				}
			}
		}
	}
}
MOTION
Frames: 10
Frame Time: .0083333
3.2190 17.9684 18.5566 13.2102 -24.1705 -3.2534 0.0000 0.0000 0.0000 -38.6697 3.3466 -4.2965 4.8549 13.2186 40.1922 -0.3349 -12.2823 11.8301 2.5447 -9.9187 -28.7139 0.0000 0.0000 0.0000 14.5089 6.2021 -35.4156 -4.7004 -13.0382 39.5116 -0.0101 -2.3708 -4.0171 -2.9023 -10.5352 30.7278 0.1013 -1.2687 31.5643 8.7823 -0.7688 6.2850 9.6922 -0.4208 -9.4961 1.5168 3.5797 -11.9406 -9.4936 5.2984 4.5078 -2.7948 2.1883 3.5988 -0.0000 0.0000 0.0000 -89.3565 24.5588 16.9453 24.3440 -35.5260 -7.9056 -0.0000 0.0000 -13.7669 6.0222 48.2470 4.5001 -7.1250 0.0000 -0.0000 -55.6719 71.5027 -38.4907 -0.0000 0.0000 0.0000 75.9886 -14.1722 -28.4416 -124.1210 55.1079 -89.0643 0.0000 -0.0000 -41.7408 -13.3994 -2.9160 0.6943 7.1250 -0.0000 -0.0000 10.6841 -32.8439 3.2302
3.2138 17.9302 18.3342 12.6371 -23.7209 -2.8598 0.0000 0.0000 0.0000 -38.4366 2.9588 -3.7524 4.5468 12.8545 38.8263 -0.3287 -12.3352 12.0939 2.5121 -9.8600 -28.5244 0.0000 0.0000 0.0000 15.3172 6.4540 -35.9610 -4.5844 -12.8999 38.9950 0.0164 -3.2734 -3.7007 -3.0214 -10.7296 31.3732 0.1174 -1.3825 31.4210 8.9356 -0.8719 6.0509 9.9008 -0.4538 -9.6849 1.2383 3.5528 -11.7494 -9.2824 5.2681 4.3111 -2.6908 2.1898 3.4924 -0.0000 -0.0000 0.0000 -89.1849 24.4224 16.3746 24.3835 -35.5672 -7.9285 -0.0000 0.0000 -13.6819 6.3747 48.2493 4.7645 -7.1250 0.0000 -0.0000 -55.3952 71.6280 -38.3993 -0.0000 -0.0000 0.0000 75.5556 -14.0893 -28.3865 -125.1470 54.7747 -89.9041 0.0000 -0.0000 -40.9842 -12.2059 -2.6327 0.5693 7.1250 -0.0000 -0.0000 11.5982 -32.5206 3.6085
3.1988 17.8995 18.1537 12.3910 -23.3402 -2.9321 0.0000 0.0000 0.0000 -38.5418 2.8157 -2.8001 4.2743 12.5168 37.5856 -0.3022 -12.1194 12.2184 2.2249 -9.3195 -26.8000 0.0000 0.0000 0.0000 15.8456 6.2315 -35.9779 -4.4373 -12.7206 38.3315 0.0318 -3.6013 -3.1519 -2.9975 -10.6910 31.2448 -0.0443 -1.3970 31.0544 8.9843 -0.9461 6.0051 10.0632 -0.4833 -9.5727 0.9627 3.4856 -11.6735 -8.9966 5.1940 4.2996 -2.5653 2.1640 3.4564 -0.0000 0.0000 0.0000 -88.9888 24.2365 15.9723 24.4469 -35.6333 -7.9654 -0.0000 0.0000 -13.4832 7.5604 47.8183 5.6171 -7.1250 0.0000 -0.0000 -53.3108 71.8147 -36.9142 -0.0000 0.0000 0.0000 75.1621 -13.9484 -28.4497 -126.2681 54.3940 -90.8178 0.0000 -0.0000 -40.5577 -12.0771 -2.1447 0.4588 7.1250 -0.0000 -0.0000 11.6335 -32.0279 3.7609
3.1703 17.8764 17.9657 11.4333 -22.8150 -2.8485 0.0000 0.0000 0.0000 -37.8006 2.5091 -2.0181 4.1036 12.2970 36.7910 -0.2493 -11.5756 12.2474 1.6621 -8.1237 -23.0904 0.0000 0.0000 0.0000 17.0893 6.2495 -35.5271 -4.2184 -12.4455 37.3269 0.0557 -4.3383 -2.8086 -3.0369 -10.7546 31.4567 0.2871 -1.3928 30.8810 9.2895 -0.7989 5.9140 10.1644 -0.4146 -9.6342 0.9164 3.3883 -11.7272 -9.0090 5.0907 4.5388 -2.5670 2.1020 3.5318 0.0000 -0.0000 0.0000 -88.6132 24.0172 16.0524 24.4582 -35.6450 -7.9720 -0.0000 0.0000 -13.2843 8.2069 47.6682 6.0859 -7.1250 0.0000 -0.0000 -52.3815 71.9606 -36.3205 0.0000 -0.0000 0.0000 74.6445 -13.9349 -28.7166 -127.5390 53.9411 -91.8482 0.0000 -0.0000 -40.1798 -12.6457 -2.2269 0.4995 7.1250 -0.0000 -0.0000 11.1936 -32.1266 3.5866
3.1698 17.8434 17.7752 10.8636 -22.2781 -2.9651 0.0000 0.0000 0.0000 -37.5063 2.0079 -1.2389 3.9418 12.0826 36.0248 -0.1484 -10.2731 11.9381 0.7376 -5.4867 -15.3022 0.0000 0.0000 0.0000 17.8901 6.2331 -35.1971 -4.0081 -12.1711 36.3400 0.0807 -5.0694 -2.4969 -3.1385 -10.9159 31.9968 0.6098 -1.3677 31.0889 9.5458 -0.5788 5.5173 10.2206 -0.2876 -10.2078 0.5374 3.1934 -11.0570 -9.0465 4.8827 4.6471 -2.5392 2.0034 3.4376 -0.0000 0.0000 0.0000 -88.3855 24.1959 16.3591 24.5948 -35.7869 -8.0518 -0.0000 0.0000 -13.1347 8.1022 48.4319 6.0796 -7.1250 0.0000 -0.0000 -54.4924 72.3393 -38.4097 -0.0000 0.0000 0.0000 73.6194 -14.6129 -29.0731 -129.0427 53.3744 -93.0594 0.0000 -0.0000 -40.3314 -10.9284 -2.0269 0.3913 7.1250 -0.0000 -0.0000 12.5250 -31.8775 4.1075
3.1582 17.8080 17.5717 10.0364 -22.0116 -2.9816 0.0000 0.0000 0.0000 -36.9178 1.6254 -0.7419 3.8506 11.9588 35.5865 -0.1792 -10.0824 10.8891 0.3177 -3.6232 -10.0189 0.0000 0.0000 0.0000 19.0044 6.5174 -34.7510 -3.7782 -11.8593 35.2360 0.1158 -6.0253 -2.0840 -3.2580 -11.1014 32.6227 0.6569 -1.3136 31.2845 9.7537 -0.4696 5.6081 10.3902 -0.2406 -10.2155 0.8018 3.2986 -11.8399 -9.0336 5.0311 5.0296 -2.5568 2.0497 3.6945 -0.0000 -0.0000 0.0000 -88.1827 23.6083 15.9131 24.8997 -36.1013 -8.2307 -0.0000 0.0000 -13.0533 8.5904 48.6773 6.4726 -7.1250 0.0000 -0.0000 -54.7761 72.6442 -38.9565 -0.0000 -0.0000 0.0000 72.6501 -14.1003 -28.8302 -130.4091 52.8292 -94.1522 0.0000 -0.0000 -40.3469 -9.5888 -2.0665 0.3490 7.1250 -0.0000 -0.0000 13.5860 -31.8774 4.4726
3.1495 17.7655 17.3575 9.6816 -21.3713 -2.9697 0.0000 0.0000 0.0000 -36.7422 1.1264 -0.5057 3.8245 11.9231 35.4605 -0.3543 -11.5326 9.3887 0.3476 -3.7880 -10.4810 0.0000 0.0000 0.0000 19.4340 6.6752 -34.6602 -3.5695 -11.5644 34.2078 0.1541 -6.9816 -1.7715 -3.5414 -11.5238 34.0675 0.5874 -1.4273 31.0129 9.6713 -0.6724 5.7428 10.3935 -0.3450 -9.9135 1.4158 3.3563 -12.6841 -9.1155 5.0548 5.3313 -2.6686 2.0385 3.9420 0.0000 0.0000 0.0000 -87.5527 22.7782 15.8813 25.1128 -36.3190 -8.3566 -0.0000 0.0000 -13.4233 9.7430 48.6884 7.3491 -7.1250 0.0000 -0.0000 -53.8896 73.0692 -38.6646 0.0000 0.0000 0.0000 72.1552 -12.2582 -29.5657 -130.5950 52.7527 -94.3003 0.0000 -0.0000 -39.5535 -7.5313 -1.5828 0.2092 7.1250 -0.0000 -0.0000 15.1188 -31.3426 5.2094
3.1399 17.7270 17.1324 9.3812 -20.7826 -3.1082 0.0000 0.0000 0.0000 -36.5528 0.7197 -0.2622 3.8580 11.9690 35.6223 -0.4754 -12.3508 7.1656 0.5166 -4.6068 -12.7903 0.0000 0.0000 0.0000 19.8502 6.6533 -34.4928 -3.3778 -11.2828 33.2397 0.1715 -7.4738 -1.1340 -3.5936 -11.5991 34.3280 0.5259 -1.5326 30.8069 9.5561 -0.8588 5.8521 10.3520 -0.4404 -9.6693 1.8703 3.3912 -13.0112 -9.2166 5.0468 5.4393 -2.7701 2.0273 4.0415 -0.0000 0.0000 0.0000 -86.9500 22.0785 15.8134 25.3478 -36.5573 -8.4962 -0.0000 0.0000 -13.5029 10.1604 48.8062 7.6804 -7.1250 0.0000 -0.0000 -53.8951 73.2840 -38.8866 -0.0000 0.0000 0.0000 71.3346 -11.1931 -29.5912 -131.6423 52.3113 -95.1315 0.0000 -0.0000 -39.3961 -5.9144 -1.4725 0.1525 7.1250 -0.0000 -0.0000 16.3539 -31.1874 5.7298
3.1306 17.6980 16.9029 9.1497 -20.6759 -3.2279 0.0000 0.0000 0.0000 -36.3531 0.6576 -0.4932 3.9564 12.1021 36.0942 -0.4823 -12.1971 4.3698 0.6891 -5.3070 -14.7863 0.0000 0.0000 0.0000 20.2253 6.9258 -34.3399 -3.1916 -10.9989 32.2762 0.1748 -7.7377 -0.3850 -3.7260 -11.7866 34.9811 0.2397 -1.3133 30.8080 9.5213 -0.6667 5.8174 10.4070 -0.3383 -9.7422 1.6985 3.4737 -12.2355 -8.9107 5.1148 4.9244 -2.6535 2.1101 3.7479 0.0000 -0.0000 0.0000 -86.5142 21.6845 15.8854 25.7570 -36.9678 -8.7411 -0.0000 0.0000 -13.3877 10.3663 49.1414 7.8770 -7.1250 0.0000 -0.0000 -54.7168 73.5330 -39.8181 0.0000 -0.0000 0.0000 70.2943 -10.4090 -29.7219 -132.7367 51.8303 -95.9948 0.0000 -0.0000 -39.3010 -3.9325 -1.5085 0.1037 7.1250 -0.0000 -0.0000 17.8867 -31.1587 6.3272
3.1221 17.6662 16.6815 9.3598 -20.1937 -3.5320 0.0000 0.0000 0.0000 -36.6267 0.3871 -0.5542 4.0044 12.1662 36.3226 -0.4661 -12.2319 1.9453 0.6378 -5.1097 -14.2217 0.0000 0.0000 0.0000 20.0633 6.7049 -34.4136 -3.0563 -10.7857 31.5604 0.1673 -7.8126 0.2964 -3.8984 -12.0239 35.8166 -0.3004 -1.1723 30.6598 9.3634 -0.6793 5.8551 10.5323 -0.3322 -9.6335 1.6850 3.4344 -11.9801 -8.7149 5.0230 4.6235 -2.6024 2.0898 3.6033 -0.0000 -0.0000 0.0000 -86.0114 21.0074 16.1116 26.1204 -37.3273 -8.9605 -0.0000 0.0000 -13.3620 10.5729 49.4328 8.0703 -7.1250 0.0000 -0.0000 -55.4342 73.7560 -40.6433 -0.0000 -0.0000 0.0000 69.3193 -9.1719 -29.8967 -133.4206 51.5192 -96.5313 0.0000 -0.0000 -38.6795 -2.0453 -1.5647 0.0559 7.1250 -0.0000 -0.0000 19.3402 -31.1466 6.9016
